Coordinates
version=1
nRows=19
nColumns=33
inDegrees=yes

Units are S.I. units (second, meters, Newtons, ...)
Angles are in degrees.

endheader
time	ground_thorax_rot_x	ground_thorax_rot_y	ground_thorax_rot_z	ground_thorax_tx	ground_thorax_ty	ground_thorax_tz	clav_prot_r	clav_elev_r	scapula_abduction_r	scapula_elevation_r	scapula_upward_rot_r	scapula_winging_r	shoulder_elv_r	plane_of_elev_r	axial_rot_r	elbow_flexion_r	pro_sup_r	wrist_flex_r	wrist_dev_r	clav_prot_l	clav_elev_l	scapula_abduction_l	scapula_elevation_l	scapula_upward_rot_l	scapula_winging_l	shoulder_elv_l	plane_of_elev_l	axial_rot_l	elbow_flexion_l	pro_sup_l	wrist_flex_l	wrist_dev_l
      8.23000000	     36.49710148	     17.41233536	     20.70248002	   -261.37337994	    826.82098173	      9.06762823	     11.85241848	     36.82192551	     35.54948233	     45.00000000	    -42.21585897	   2069.61384542	  -2271.54142624	    146.82200504	   -124.11056277	   2180.46150147	    100.95974414	     11.68904445	      3.42702061	      8.66255253	    -45.00000000	    -35.69788906	     45.00000000	    -45.00000000	  -2776.93468738	    437.14216802	     19.99979176	    -59.23876499	    736.14795721	     77.96970761	     -1.28327515	    -14.23746185
      8.24000000	     36.41903090	     17.51401781	     20.83372701	   -261.35509468	    826.68259060	      9.09955074	     11.90614752	     36.99922685	     35.48952108	     45.00000000	    -42.40950076	   2069.77680331	  -2271.37937917	    146.89425453	   -124.08426675	   2180.51201296	    100.96263077	     11.59956450	      3.33298527	      8.56329557	    -45.00000000	    -35.77094366	     45.00000000	    -45.00000000	  -2776.92609004	    437.14309952	     19.91242749	    -59.28167211	    736.07323974	     77.99759418	     -1.23884531	    -14.02984586
      8.25000000	     36.47906242	     17.37106224	     20.63354257	   -261.27560278	    826.56192496	      9.13313592	     11.88643999	     36.53555942	     35.63607739	     45.00000000	    -42.14036508	   2069.40803565	  -2271.75421985	    146.69131674	   -124.32349007	   2180.36618558	    101.00878458	     11.65496465	      3.47731820	      8.75035092	    -45.00000000	    -35.67182121	     45.00000000	    -45.00000000	  -2776.81539028	    437.21668608	     20.07286386	    -59.47807287	    736.40765583	     78.01301948	     -1.32814098	    -14.27516090
      8.26000000	     36.33272100	     17.57201101	     20.94624262	   -261.13399254	    826.44055461	      9.17095625	     11.93233887	     37.10569773	     35.47896627	     45.00000000	    -42.44079325	   2069.82368237	  -2271.34234238	    146.90561688	   -124.10068595	   2180.58948077	    101.00563678	     11.62597688	      3.27974689	      8.57307855	    -45.00000000	    -35.78464913	     45.00000000	    -45.00000000	  -2776.82230445	    437.21541841	     19.87062132	    -59.25275759	    736.29687571	     78.08341222	     -1.28587730	    -13.98488773
      8.27000000	     36.46582036	     17.40608354	     20.68716356	   -260.95400309	    826.33532732	      9.20633822	     11.88947564	     36.61698298	     35.65754345	     45.00000000	    -42.20287705	   2069.49590437	  -2271.59993475	    146.71062416	   -124.24670449	   2180.51655130	    101.06575934	     11.65375546	      3.38116670	      8.76072490	    -45.00000000	    -35.66430239	     45.00000000	    -45.00000000	  -2776.89336828	    437.09995896	     20.04653128	    -59.44379725	    736.25319186	     78.16387971	     -1.27891427	    -14.18076187
      8.28000000	     36.31427708	     17.61282824	     20.92065678	   -260.73743206	    826.23575969	      9.23975644	     11.95217420	     37.02570363	     35.50363486	     45.00000000	    -42.33792294	   2069.72883129	  -2271.39980252	    146.84540711	   -124.12869191	   2180.59963297	    101.11308088	     11.62137886	      3.27321490	      8.60632720	    -45.00000000	    -35.82669123	     45.00000000	    -45.00000000	  -2776.86716573	    437.19239648	     19.89488768	    -59.26484145	    736.30189397	     78.23907291	     -1.28265180	    -14.00233906
      8.29000000	     36.41568360	     17.46853957	     20.74875549	   -260.49998170	    826.14329321	      9.26819213	     11.88656404	     36.64643112	     35.70040295	     45.00000000	    -42.17682619	   2069.54361912	  -2271.60011489	    146.76069282	   -124.21925232	   2180.49522282	    101.20342544	     11.63626990	      3.34771229	      8.77512357	    -45.00000000	    -35.67131831	     45.00000000	    -45.00000000	  -2776.93481535	    437.05200604	     20.03793166	    -59.37756801	    736.19566026	     78.33710279	     -1.25466817	    -14.11395649
      8.30000000	     36.13940266	     17.83237002	     21.12942643	   -260.24410035	    826.05433709	      9.29105829	     11.99858584	     37.30406936	     35.42093655	     45.00000000	    -42.43061608	   2069.92106343	  -2271.34458734	    146.98587426	   -124.04112206	   2180.58267531	    101.27344716	     11.66150857	      3.21769023	      8.52219096	    -45.00000000	    -35.92754461	     45.00000000	    -45.00000000	  -2776.93898609	    437.24984683	     19.80966991	    -59.10139792	    736.14493288	     78.42461897	     -1.24675884	    -13.88927017
      8.31000000	     36.27759654	     17.55035521	     20.87364723	   -259.96692224	    825.96656690	      9.30813579	     11.88430393	     36.86442089	     35.68207736	     45.00000000	    -42.14930337	   2069.66170354	  -2271.49897861	    146.83300763	   -124.15725062	   2180.52270716	    101.42822825	     11.64304310	      3.29442531	      8.71053320	    -45.00000000	    -35.72885159	     45.00000000	    -45.00000000	  -2776.95531821	    437.16520882	     20.03234760	    -59.22036243	    736.10518291	     78.55221612	     -1.23249331	    -14.01113410
      8.32000000	     36.17336706	     17.69535938	     20.88031205	   -259.68437763	    825.88590065	      9.31842721	     12.02005385	     36.92288377	     35.52421616	     45.00000000	    -42.16159707	   2069.57692578	  -2271.51459140	    146.77509601	   -124.15773249	   2180.76831559	    101.53200349	     11.55126289	      3.19691562	      8.61303446	    -45.00000000	    -36.05444429	     45.00000000	    -45.00000000	  -2776.93881978	    437.21823230	     19.92316459	    -59.12422268	    736.45469772	     78.60811305	     -1.29896367	    -13.95636804
      8.33000000	     36.24211572	     17.45975930	     20.79422615	   -259.38001862	    825.81058621	      9.32317845	     11.83274854	     36.82136396	     35.76602145	     45.00000000	    -42.12202493	   2069.69529813	  -2271.52606050	    146.82220410	   -124.15276240	   2180.68907064	    101.69773697	     11.62234886	      3.24372539	      8.81227363	    -45.00000000	    -35.64237570	     45.00000000	    -45.00000000	  -2776.95407154	    437.13747604	     20.16620295	    -59.12577752	    736.22468661	     78.75355923	     -1.25353090	    -14.00105900
      8.34000000	     36.14507280	     17.63866687	     20.91564772	   -259.06206432	    825.74809608	      9.32268107	     11.96389576	     36.95646426	     35.55724156	     45.00000000	    -42.07494256	   2069.68977213	  -2271.47218194	    146.73105009	   -124.14608426	   2180.67226070	    101.89562714	     11.57097194	      3.20058290	      8.66578382	    -45.00000000	    -35.86495448	     45.00000000	    -45.00000000	  -2776.98237766	    437.18434429	     20.04549895	    -58.97509728	    736.30620957	     78.88610361	     -1.27033777	    -13.90222076
      8.35000000	     36.19463467	     17.69975274	     20.97217188	   -258.72976355	    825.70349240	      9.31793050	     11.84225163	     36.77197965	     35.94445795	     45.00000000	    -41.94265971	   2069.52399573	  -2271.68104954	    147.04457039	   -124.33784343	   2180.64334272	    102.07456098	     11.51356617	      3.25789813	      8.79445535	    -45.00000000	    -35.77864660	     45.00000000	    -45.00000000	  -2777.04894420	    437.01928618	     20.05835542	    -58.94176378	    736.01744949	     79.04628037	     -1.21669313	    -13.93769163
      8.36000000	     36.08739111	     17.72750098	     20.97308782	   -258.36636635	    825.67968857	      9.30966893	     12.00940066	     37.04029876	     35.47092014	     45.00000000	    -41.96144274	   2069.69326656	  -2271.44946011	    146.63407670	   -124.24451334	   2180.69191411	    102.28698240	     11.53975406	      3.18149762	      8.64394664	    -45.00000000	    -35.86058081	     45.00000000	    -45.00000000	  -2777.06133440	    437.19354513	     20.08523416	    -58.77219851	    736.21735868	     79.19251895	     -1.26756111	    -13.84402144
      8.37000000	     36.15796598	     17.60925364	     20.86449928	   -257.97668026	    825.68208939	      9.29893524	     11.88284640	     36.84072762	     35.82325611	     45.00000000	    -41.84778546	   2069.60238138	  -2271.59244158	    146.81419319	   -124.35409395	   2180.75357231	    102.51239207	     11.50883150	      3.19269708	      8.79584802	    -45.00000000	    -35.75104986	     45.00000000	    -45.00000000	  -2777.06123844	    437.11809608	     20.23146574	    -58.70332432	    736.25710530	     79.38326555	     -1.28781467	    -13.88310854
      8.38000000	     36.09476040	     17.74718676	     20.93663018	   -257.55594657	    825.71239545	      9.28676123	     11.97998601	     37.03390893	     35.63184662	     45.00000000	    -41.81317035	   2069.64187013	  -2271.47324164	    146.70250878	   -124.39821157	   2180.78096351	    102.75663780	     11.48937711	      3.15357174	      8.67955385	    -45.00000000	    -35.91265633	     45.00000000	    -45.00000000	  -2777.09226607	    437.19856047	     20.16380341	    -58.50939111	    736.36337502	     79.58761241	     -1.32602184	    -13.82556309
      8.39000000	     36.20166563	     17.65523556	     20.73127583	   -257.10179012	    825.77060118	      9.27404646	     11.81927410	     36.76387761	     35.83633592	     45.00000000	    -41.63250061	   2069.55851563	  -2271.48195790	    146.81753550	   -124.57215136	   2181.00995745	    102.96057589	     11.43498145	      3.10836303	      8.85973916	    -45.00000000	    -36.02540002	     45.00000000	    -45.00000000	  -2777.04124275	    437.10488645	     20.27028549	    -58.43370280	    736.67349555	     79.75415002	     -1.40927859	    -13.88186161
      8.40000000	     36.08281300	     17.82161846	     20.90225596	   -256.59876860	    825.85695037	      9.26099974	     11.93917325	     37.15253780	     35.53197383	     45.00000000	    -41.65982492	   2069.68665160	  -2271.33691640	    146.57763860	   -124.59225860	   2180.88053939	    103.22431713	     11.48557480	      3.08702672	      8.72119330	    -45.00000000	    -36.04312464	     45.00000000	    -45.00000000	  -2777.14582440	    437.24053628	     20.22802846	    -58.13403661	    736.56996653	     80.01560315	     -1.40859248	    -13.81068989
      8.41000000	     36.12762246	     17.77513982	     20.78757677	   -256.05009496	    825.96928073	      9.24787684	     11.67867986	     36.79187217	     35.56350921	     45.00000000	    -41.27939770	   2069.75636313	  -2271.35055070	    146.70824347	   -124.84003720	   2180.91426507	    103.49561079	     11.40836311	      3.09079359	      8.93582519	    -45.00000000	    -36.11145412	     45.00000000	    -45.00000000	  -2777.12814970	    437.12706229	     20.38309963	    -58.05222685	    736.58006870	     80.28186893	     -1.42780580	    -13.84890592
